<svg width="17" height="20" viewBox="0 0 17 20" fill="none" xmlns="http://www.w3.org/2000/svg">
<g id="ic_attachment" clip-path="url(#clip0_20_1094)">
<path id="Shape" d="M7.93179 15.3645C7.47119 15.8149 6.85587 16.0605 6.21968 16.0479C5.58349 16.0353 4.97788 15.7654 4.53461 15.2971C4.09134 14.8288 3.84625 14.1999 3.85266 13.5472C3.85908 12.8944 4.11647 12.2707 4.56886 11.8116L12.0787 4.1066C12.1233 4.0593 12.1765 4.02157 12.2354 3.99562C12.2943 3.96966 12.3577 3.956 12.4218 3.95543C12.4859 3.95486 12.5494 3.96739 12.6088 3.99229C12.6681 4.01719 12.722 4.05397 12.7673 4.10047C12.8127 4.14697 12.8485 4.20226 12.8728 4.26312C12.897 4.32399 12.9093 4.3892 12.9087 4.45496C12.9081 4.52072 12.8948 4.58571 12.8695 4.64613C12.8442 4.70655 12.8075 4.7612 12.7613 4.80688L5.25149 12.5119C4.98767 12.7921 4.84169 13.1674 4.84499 13.557C4.84829 13.9465 5.00061 14.3192 5.26913 14.5946C5.53765 14.8701 5.9009 15.0264 6.28064 15.0298C6.66038 15.0331 7.02622 14.8834 7.29937 14.6127L14.8092 6.9087C15.443 6.25853 15.7991 5.37672 15.7991 4.45724C15.7991 3.53776 15.443 2.65594 14.8092 2.00577C14.1754 1.3556 13.3158 0.990342 12.4195 0.990342C11.5232 0.990342 10.6637 1.3556 10.0299 2.00577L2.52098 9.70684C1.53612 10.7308 0.986013 12.1128 0.990711 13.5513C0.995409 14.9898 1.55453 16.368 2.54606 17.3852C3.53759 18.4023 4.88105 18.9759 6.28328 18.9807C7.68551 18.9855 9.03268 18.4212 10.0308 17.4109L16.1754 11.1074C16.22 11.0601 16.2732 11.0224 16.3321 10.9964C16.391 10.9705 16.4544 10.9568 16.5185 10.9562C16.5826 10.9557 16.6462 10.9682 16.7055 10.9931C16.7648 11.018 16.8187 11.0548 16.864 11.1013C16.9094 11.1478 16.9452 11.2031 16.9695 11.2639C16.9938 11.3248 17.006 11.39 17.0054 11.4558C17.0049 11.5215 16.9916 11.5865 16.9663 11.6469C16.941 11.7073 16.9042 11.762 16.8581 11.8077L10.7173 18.1151C9.54408 19.3149 7.956 19.9901 6.2994 19.9936C4.6428 19.9971 3.05206 19.3285 1.87406 18.1336C0.696057 16.9387 0.0263522 15.3145 0.0109822 13.6152C-0.00438786 11.9158 0.635824 10.2791 1.79201 9.06203L9.35207 1.30549C10.1669 0.4696 11.272 0 12.4244 0C13.5767 0 14.6818 0.4696 15.4967 1.30549C16.3115 2.14139 16.7693 3.2751 16.7693 4.45724C16.7693 5.63937 16.3115 6.77309 15.4967 7.60898L7.93661 15.3645H7.93179Z" fill="#D5D5DC"/>
</g>
<defs>
<clipPath id="clip0_20_1094">
<rect width="17" height="20" fill="white"/>
</clipPath>
</defs>
</svg>
