<svg width="20" height="19" viewBox="0 0 20 19" fill="none" xmlns="http://www.w3.org/2000/svg">
<g id="iconspace_Chat 3_25px" clip-path="url(#clip0_20_1085)">
<path id="Path" d="M5.14402 19C4.73759 18.9992 4.34796 18.8377 4.06019 18.5507C3.77242 18.2637 3.60987 17.8745 3.60802 17.468V15.153C2.58725 14.9044 1.6784 14.3228 1.02502 13.5C0.358328 12.6666 -0.00334572 11.6303 2.33261e-05 10.563V4.72003C-0.000510415 3.47047 0.494682 2.27173 1.37694 1.38684C2.2592 0.501959 3.45647 0.0032086 4.70602 3.05176e-05H15.294C16.5436 0.0032086 17.7408 0.501959 18.6231 1.38684C19.5054 2.27173 20.0006 3.47047 20 4.72003V10.563C20.0003 11.8124 19.505 13.0109 18.6228 13.8956C17.7405 14.7802 16.5434 15.2789 15.294 15.282H10.514L6.06502 18.682C5.80171 18.8871 5.47777 18.9989 5.14402 19ZM4.70602 2.00003C3.98674 2.00268 3.29787 2.29054 2.79057 2.80047C2.28327 3.3104 1.99896 4.00074 2.00002 4.72003V10.563C1.9974 11.2723 2.27274 11.9544 2.76702 12.463C3.256 12.971 3.92518 13.2663 4.63002 13.285C4.89086 13.2908 5.13897 13.3989 5.32082 13.586C5.50266 13.7731 5.60366 14.0241 5.60202 14.285V16.522L9.56402 13.493C9.73892 13.3602 9.95243 13.2882 10.172 13.288H15.29C15.6469 13.2872 16.0002 13.2161 16.3296 13.0787C16.659 12.9413 16.9581 12.7403 17.2098 12.4872C17.4615 12.2342 17.6609 11.9339 17.7964 11.6038C17.932 11.2736 18.0012 10.92 18 10.563V4.72003C18.0011 4.00074 17.7168 3.3104 17.2095 2.80047C16.7022 2.29054 16.0133 2.00268 15.294 2.00003H4.70602Z" fill="#9D9DAF"/>
</g>
<defs>
<clipPath id="clip0_20_1085">
<rect width="20" height="19" fill="white"/>
</clipPath>
</defs>
</svg>
