<svg width="21" height="20" viewBox="0 0 21 20" fill="none" xmlns="http://www.w3.org/2000/svg">
<g id="ic_Image" clip-path="url(#clip0_20_1098)">
<path id="Shape" d="M17.5 20H3.5C2.59202 20.0185 1.71375 19.6763 1.05767 19.0483C0.401598 18.4204 0.0212515 17.5579 0 16.65L0 3.34998C0.0212515 2.44207 0.401598 1.57961 1.05767 0.951653C1.71375 0.323697 2.59202 -0.0185312 3.5 -1.86258e-05H17.5C18.408 -0.0185312 19.2863 0.323697 19.9423 0.951653C20.5984 1.57961 20.9787 2.44207 21 3.34998V16.65C20.9787 17.5579 20.5984 18.4204 19.9423 19.0483C19.2863 19.6763 18.408 20.0185 17.5 20ZM15.286 8.77498L10.572 13.028L15.961 19H17.5C18.1428 19.0186 18.7668 18.7817 19.2353 18.3413C19.7039 17.9008 19.9788 17.2927 20 16.65V13.071L15.286 8.77498ZM7.147 10.725L1.009 16.849C1.08478 17.4521 1.38132 18.0057 1.84136 18.4029C2.3014 18.8002 2.89232 19.0129 3.5 19H14.613L7.147 10.725ZM3.5 0.999981C2.8572 0.981381 2.23322 1.21823 1.76467 1.65867C1.29611 2.09911 1.02116 2.70726 1 3.34998V15.45L6.814 9.64998C6.86197 9.60217 6.91916 9.56461 6.98208 9.53957C7.04501 9.51452 7.11237 9.50253 7.18007 9.5043C7.24778 9.50608 7.31441 9.52159 7.37594 9.5499C7.43747 9.57821 7.4926 9.61872 7.538 9.66898L9.9 12.286L14.951 7.72898C15.0429 7.64578 15.1625 7.59971 15.2865 7.59971C15.4105 7.59971 15.5301 7.64578 15.622 7.72898L20 11.718V3.34998C19.9788 2.70726 19.7039 2.09911 19.2353 1.65867C18.7668 1.21823 18.1428 0.981381 17.5 0.999981H3.5ZM6.69 6.69998C6.30944 6.69919 5.93766 6.58562 5.62162 6.37362C5.30558 6.16162 5.05947 5.8607 4.91439 5.50888C4.7693 5.15706 4.73175 4.77014 4.80648 4.39699C4.88121 4.02384 5.06486 3.68121 5.33423 3.41239C5.60361 3.14358 5.94662 2.96064 6.31992 2.88668C6.69322 2.81273 7.08007 2.85108 7.43159 2.9969C7.7831 3.14271 8.08351 3.38945 8.29486 3.70593C8.5062 4.0224 8.619 4.39442 8.619 4.77498C8.61794 5.28572 8.41438 5.77519 8.05295 6.13605C7.69152 6.49692 7.20074 6.69972 6.69 6.69998ZM6.69 3.85098C6.50722 3.85177 6.32878 3.90669 6.17719 4.00881C6.0256 4.11093 5.90767 4.25567 5.83827 4.42476C5.76887 4.59385 5.75112 4.77971 5.78726 4.95888C5.82341 5.13805 5.91182 5.30249 6.04134 5.43146C6.17086 5.56042 6.33569 5.64812 6.51501 5.68349C6.69433 5.71886 6.88011 5.70031 7.0489 5.63018C7.21769 5.56005 7.36192 5.44149 7.46338 5.28947C7.56485 5.13744 7.619 4.95876 7.619 4.77598C7.61847 4.53021 7.52047 4.29468 7.34649 4.12108C7.17251 3.94748 6.93677 3.84998 6.691 3.84998L6.69 3.85098Z" fill="#D5D5DC"/>
</g>
<defs>
<clipPath id="clip0_20_1098">
<rect width="21" height="20" fill="white"/>
</clipPath>
</defs>
</svg>
