<svg width="22" height="20" viewBox="0 0 22 20" fill="none" xmlns="http://www.w3.org/2000/svg">
<g id="Combined Shape Copy" clip-path="url(#clip0_20_1076)">
<path id="Combined Shape Copy_2" d="M11 19.566C10.4792 19.567 9.97869 19.3638 9.60599 19L9.56599 18.961L1.83799 11.014C0.658906 9.79038 0.00012207 8.15729 0.00012207 6.45802C0.00012207 4.75875 0.658906 3.12565 1.83799 1.90202C2.41697 1.30071 3.11131 0.82239 3.87945 0.495672C4.64759 0.168954 5.47375 0.000556849 6.30849 0.000556849C7.14323 0.000556849 7.96939 0.168954 8.73753 0.495672C9.50567 0.82239 10.2 1.30071 10.779 1.90202L11 2.12902L11.221 1.90102C11.7999 1.29959 12.4942 0.821151 13.2624 0.494354C14.0305 0.167556 14.8567 -0.00088501 15.6915 -0.00088501C16.5263 -0.00088501 17.3525 0.167556 18.1206 0.494354C18.8888 0.821151 19.5831 1.29959 20.162 1.90102C21.3411 3.12465 21.9999 4.75775 21.9999 6.45702C21.9999 8.15629 21.3411 9.78938 20.162 11.013L12.434 18.96C12.2482 19.1526 12.0254 19.3056 11.779 19.4097C11.5325 19.5139 11.2675 19.567 11 19.566ZM6.30799 2.00002C5.74043 2.00082 5.1789 2.1164 4.65716 2.3398C4.13542 2.56321 3.66425 2.88983 3.27199 3.30002C2.45581 4.15016 2.00004 5.28301 2.00004 6.46152C2.00004 7.64003 2.45581 8.77288 3.27199 9.62302L11 17.565L18.728 9.61902C19.5442 8.76888 19.9999 7.63603 19.9999 6.45752C19.9999 5.27901 19.5442 4.14616 18.728 3.29602C18.3355 2.88629 17.8641 2.56024 17.3423 2.33749C16.8204 2.11475 16.2589 1.99992 15.6915 1.99992C15.1241 1.99992 14.5626 2.11475 14.0407 2.33749C13.5189 2.56024 13.0475 2.88629 12.655 3.29602L11.717 4.26102C11.6238 4.35687 11.5123 4.43307 11.3892 4.4851C11.266 4.53714 11.1337 4.56394 11 4.56394C10.8663 4.56394 10.734 4.53714 10.6108 4.4851C10.4877 4.43307 10.3762 4.35687 10.283 4.26102L9.34499 3.30002C8.95261 2.88971 8.48128 2.56302 7.95936 2.33961C7.43744 2.1162 6.87572 2.00068 6.30799 2.00002Z" fill="#9D9DAF"/>
</g>
<defs>
<clipPath id="clip0_20_1076">
<rect width="22" height="19.566" fill="white"/>
</clipPath>
</defs>
</svg>
