<svg width="21" height="20" viewBox="0 0 21 20" fill="none" xmlns="http://www.w3.org/2000/svg">
<g id="Hompage-Login- Post Something - Image Icon 1" clip-path="url(#clip0_20_1056)">
<path id="Shape" d="M17.5 20H3.5C2.59202 20.0185 1.71375 19.6763 1.05767 19.0483C0.401598 18.4204 0.0212515 17.5579 0 16.65L0 3.35001C0.0212515 2.4421 0.401598 1.57964 1.05767 0.951684C1.71375 0.323727 2.59202 -0.0185007 3.5 1.18918e-05H17.5C18.408 -0.0185007 19.2863 0.323727 19.9423 0.951684C20.5984 1.57964 20.9787 2.4421 21 3.35001V16.65C20.9787 17.5579 20.5984 18.4204 19.9423 19.0483C19.2863 19.6763 18.408 20.0185 17.5 20ZM15.286 8.77501L10.572 13.028L15.961 19H17.5C18.1428 19.0186 18.7668 18.7818 19.2353 18.3413C19.7039 17.9009 19.9788 17.2927 20 16.65V13.071L15.286 8.77501ZM7.147 10.725L1.009 16.849C1.08478 17.4521 1.38132 18.0057 1.84136 18.403C2.3014 18.8002 2.89232 19.0129 3.5 19H14.613L7.147 10.725ZM3.5 1.00001C2.8572 0.981411 2.23322 1.21826 1.76467 1.6587C1.29611 2.09914 1.02116 2.70729 1 3.35001V15.45L6.814 9.65001C6.86197 9.6022 6.91916 9.56464 6.98208 9.5396C7.04501 9.51455 7.11237 9.50256 7.18007 9.50433C7.24778 9.50611 7.31441 9.52162 7.37594 9.54993C7.43747 9.57824 7.4926 9.61875 7.538 9.66901L9.9 12.286L14.951 7.72901C15.0429 7.64581 15.1625 7.59974 15.2865 7.59974C15.4105 7.59974 15.5301 7.64581 15.622 7.72901L20 11.718V3.35001C19.9788 2.70729 19.7039 2.09914 19.2353 1.6587C18.7668 1.21826 18.1428 0.981411 17.5 1.00001H3.5ZM6.69 6.70001C6.30944 6.69922 5.93766 6.58565 5.62162 6.37365C5.30558 6.16165 5.05947 5.86073 4.91439 5.50891C4.7693 5.15709 4.73175 4.77017 4.80648 4.39702C4.88121 4.02387 5.06486 3.68124 5.33423 3.41242C5.60361 3.14361 5.94662 2.96067 6.31992 2.88671C6.69322 2.81276 7.08007 2.85111 7.43159 2.99693C7.7831 3.14275 8.08351 3.38948 8.29486 3.70596C8.5062 4.02243 8.619 4.39445 8.619 4.77501C8.61794 5.28575 8.41438 5.77522 8.05295 6.13608C7.69152 6.49695 7.20074 6.69975 6.69 6.70001ZM6.69 3.85101C6.50722 3.8518 6.32878 3.90672 6.17719 4.00884C6.0256 4.11096 5.90767 4.2557 5.83827 4.42479C5.76887 4.59388 5.75112 4.77974 5.78726 4.95891C5.82341 5.13808 5.91182 5.30252 6.04134 5.43149C6.17086 5.56045 6.33569 5.64815 6.51501 5.68352C6.69433 5.71889 6.88011 5.70034 7.0489 5.63021C7.21769 5.56008 7.36192 5.44152 7.46338 5.2895C7.56485 5.13747 7.619 4.95879 7.619 4.77601C7.61847 4.53024 7.52047 4.29471 7.34649 4.12111C7.17251 3.94751 6.93677 3.85001 6.691 3.85001L6.69 3.85101Z" fill="#2D3139"/>
</g>
<defs>
<clipPath id="clip0_20_1056">
<rect width="21" height="20" fill="white"/>
</clipPath>
</defs>
</svg>
