<svg width="20" height="20" viewBox="0 0 20 20" fill="none" xmlns="http://www.w3.org/2000/svg">
<g id="Peronsal Profile - About - Joined Date Icon" clip-path="url(#clip0_20_1004)">
<g id="Peronsal Profile / About / Joined Date Icon">
<path id="Shape" d="M17 20H3C2.20435 20 1.44129 19.6839 0.87868 19.1213C0.31607 18.5587 0 17.7956 0 17L0 3.7C0 3.19609 0.200178 2.71282 0.556497 2.3565C0.912816 2.00018 1.39609 1.8 1.9 1.8H4.5V1C4.5 0.734784 4.60536 0.48043 4.79289 0.292893C4.98043 0.105357 5.23478 4.21468e-08 5.5 4.21468e-08C5.76522 4.21468e-08 6.01957 0.105357 6.20711 0.292893C6.39464 0.48043 6.5 0.734784 6.5 1V1.8H14.4V1C14.4 0.868678 14.4259 0.738642 14.4761 0.617317C14.5264 0.495991 14.6 0.385752 14.6929 0.292893C14.7858 0.200035 14.896 0.126375 15.0173 0.0761205C15.1386 0.0258658 15.2687 0 15.4 0C15.5313 0 15.6614 0.0258658 15.7827 0.0761205C15.904 0.126375 16.0142 0.200035 16.1071 0.292893C16.2 0.385752 16.2736 0.495991 16.3239 0.617317C16.3741 0.738642 16.4 0.868678 16.4 1V1.8H18.1C18.6039 1.8 19.0872 2.00018 19.4435 2.3565C19.7998 2.71282 20 3.19609 20 3.7V17C20 17.7956 19.6839 18.5587 19.1213 19.1213C18.5587 19.6839 17.7956 20 17 20ZM2 7.4V17C2 17.2652 2.10536 17.5196 2.29289 17.7071C2.48043 17.8946 2.73478 18 3 18H17C17.2652 18 17.5196 17.8946 17.7071 17.7071C17.8946 17.5196 18 17.2652 18 17V7.4H2ZM2 3.8V5.4H18V3.8H16.4C16.3764 4.04769 16.2614 4.2777 16.0773 4.44509C15.8932 4.61248 15.6533 4.70524 15.4045 4.70524C15.1557 4.70524 14.9158 4.61248 14.7317 4.44509C14.5476 4.2777 14.4326 4.04769 14.409 3.8H6.5C6.5 4.06522 6.39464 4.31957 6.20711 4.50711C6.01957 4.69464 5.76522 4.8 5.5 4.8C5.23478 4.8 4.98043 4.69464 4.79289 4.50711C4.60536 4.31957 4.5 4.06522 4.5 3.8H2ZM11.8 14.6H4.6C4.33478 14.6 4.08043 14.4946 3.89289 14.3071C3.70536 14.1196 3.6 13.8652 3.6 13.6C3.6 13.3348 3.70536 13.0804 3.89289 12.8929C4.08043 12.7054 4.33478 12.6 4.6 12.6H11.8C12.0652 12.6 12.3196 12.7054 12.5071 12.8929C12.6946 13.0804 12.8 13.3348 12.8 13.6C12.8 13.8652 12.6946 14.1196 12.5071 14.3071C12.3196 14.4946 12.0652 14.6 11.8 14.6ZM8.2 11H4.6C4.33478 11 4.08043 10.8946 3.89289 10.7071C3.70536 10.5196 3.6 10.2652 3.6 10C3.6 9.73478 3.70536 9.48043 3.89289 9.29289C4.08043 9.10536 4.33478 9 4.6 9H8.2C8.46522 9 8.71957 9.10536 8.90711 9.29289C9.09464 9.48043 9.2 9.73478 9.2 10C9.2 10.2652 9.09464 10.5196 8.90711 10.7071C8.71957 10.8946 8.46522 11 8.2 11Z" fill="#9D9DAF"/>
</g>
</g>
<defs>
<clipPath id="clip0_20_1004">
<rect width="20" height="20" fill="white"/>
</clipPath>
</defs>
</svg>
