<svg width="22" height="20" viewBox="0 0 22 20" fill="none" xmlns="http://www.w3.org/2000/svg">
<g id="Peronsal Profile - About - Relationship Status Icon" clip-path="url(#clip0_20_1007)">
<g id="Peronsal Profile / About / Relationship Status Icon">
<path id="Shape" d="M11.094 20H10.906C10.4933 20.0005 10.0848 19.9174 9.70496 19.7559C9.32516 19.5943 8.98197 19.3576 8.69603 19.06L2.03003 12.193C0.725872 10.8367 -0.00256348 9.02811 -0.00256348 7.1465C-0.00256348 5.26489 0.725872 3.45634 2.03003 2.1C3.17712 0.905862 4.71845 0.168374 6.36802 0.0243822C8.01758 -0.11961 9.66338 0.33967 11 1.317C12.3371 0.34017 13.9832 -0.118434 15.6328 0.0262955C17.2824 0.171025 18.8234 0.909258 19.97 2.104C21.273 3.46014 22.0007 5.26785 22.0007 7.1485C22.0007 9.02915 21.273 10.8369 19.97 12.193L13.3 19.06C13.0147 19.3573 12.6721 19.5938 12.293 19.7553C11.9139 19.9169 11.5061 20.0001 11.094 20ZM10.954 18H11.094C11.2391 17.9997 11.3827 17.97 11.5161 17.9128C11.6494 17.8556 11.7698 17.772 11.87 17.667L18.535 10.8C19.4749 9.81725 19.9994 8.50983 19.9994 7.15C19.9994 5.79017 19.4749 4.48276 18.535 3.5C18.0957 3.04005 17.57 2.67116 16.988 2.41439C16.4061 2.15762 15.7793 2.018 15.1433 2.00352C14.5074 1.98903 13.8749 2.09996 13.2818 2.32996C12.6888 2.55996 12.1469 2.90454 11.687 3.344C11.5014 3.51925 11.2558 3.61687 11.0005 3.61687C10.7453 3.61687 10.4996 3.51925 10.314 3.344C9.85424 2.90442 9.31233 2.55974 8.71928 2.32966C8.12623 2.09958 7.49366 1.98862 6.8577 2.0031C6.22175 2.01759 5.59489 2.15725 5.01293 2.41409C4.43097 2.67094 3.90532 3.03993 3.46603 3.5C2.52594 4.48264 2.00125 5.7901 2.00125 7.15C2.00125 8.5099 2.52594 9.81737 3.46603 10.8L10.132 17.667C10.2321 17.7718 10.3524 17.8554 10.4855 17.9126C10.6187 17.9698 10.7621 17.9996 10.907 18H10.954ZM11 14C10.7348 14 10.4805 13.8946 10.2929 13.7071C10.1054 13.5196 10 13.2652 10 13V11H8.00003C7.73481 11 7.48046 10.8946 7.29292 10.7071C7.10538 10.5196 7.00003 10.2652 7.00003 10C7.00003 9.73479 7.10538 9.48043 7.29292 9.2929C7.48046 9.10536 7.73481 9 8.00003 9H10V7C10 6.73479 10.1054 6.48043 10.2929 6.2929C10.4805 6.10536 10.7348 6 11 6C11.2652 6 11.5196 6.10536 11.7071 6.2929C11.8947 6.48043 12 6.73479 12 7V9H14C14.2652 9 14.5196 9.10536 14.7071 9.2929C14.8947 9.48043 15 9.73479 15 10C15 10.2652 14.8947 10.5196 14.7071 10.7071C14.5196 10.8946 14.2652 11 14 11H12V13C12 13.2652 11.8947 13.5196 11.7071 13.7071C11.5196 13.8946 11.2652 14 11 14Z" fill="#9D9DAF"/>
</g>
</g>
<defs>
<clipPath id="clip0_20_1007">
<rect width="22" height="20" fill="white"/>
</clipPath>
</defs>
</svg>
