<svg width="24" height="24" viewBox="0 0 24 24" fill="none" xmlns="http://www.w3.org/2000/svg">
<g id="Peronsal Profile - About - Job Icon" clip-path="url(#clip0_20_999)">
<g id="Working at">
<g id="Group 25">
<path id="Combined Shape" d="M4 22C3.20435 22 2.44129 21.6839 1.87868 21.1213C1.31607 20.5587 1 19.7956 1 19L1 9C1 8.20435 1.31607 7.44129 1.87868 6.87868C2.44129 6.31607 3.20435 6 4 6H7C7 5.20435 7.31607 4.44129 7.87868 3.87868C8.44129 3.31607 9.20435 3 10 3H14C14.7956 3 15.5587 3.31607 16.1213 3.87868C16.6839 4.44129 17 5.20435 17 6H20C20.7956 6 21.5587 6.31607 22.1213 6.87868C22.6839 7.44129 23 8.20435 23 9V19C23 19.7956 22.6839 20.5587 22.1213 21.1213C21.5587 21.6839 20.7956 22 20 22H4ZM20 20C20.2652 20 20.5196 19.8946 20.7071 19.7071C20.8946 19.5196 21 19.2652 21 19V9C21 8.73478 20.8946 8.48043 20.7071 8.29289C20.5196 8.10536 20.2652 8 20 8H19.5V20H20ZM17.5 20V8H6.5V20H17.5ZM3 9V19C3 19.2652 3.10536 19.5196 3.29289 19.7071C3.48043 19.8946 3.73478 20 4 20H4.5V8H4C3.73478 8 3.48043 8.10536 3.29289 8.29289C3.10536 8.48043 3 8.73478 3 9ZM15 6C15 5.73478 14.8946 5.48043 14.7071 5.29289C14.5196 5.10536 14.2652 5 14 5H10C9.73478 5 9.48043 5.10536 9.29289 5.29289C9.10536 5.48043 9 5.73478 9 6H15Z" fill="#9D9DAF"/>
</g>
</g>
</g>
<defs>
<clipPath id="clip0_20_999">
<rect width="24" height="24" fill="white"/>
</clipPath>
</defs>
</svg>
