<svg width="18" height="21" viewBox="0 0 18 21" fill="none" xmlns="http://www.w3.org/2000/svg">
<g id="Peronsal Profile - About - Location Icon" clip-path="url(#clip0_20_994)">
<g id="Peronsal Profile / About / Location Icon">
<g id="Group 2">
<g id="Group 53">
<path id="Combined Shape" d="M8.30001 20.7122L2.70001 15.2002C1.84516 14.3826 1.16511 13.4 0.701013 12.312C0.23692 11.2239 -0.00156051 10.053 7.68409e-06 8.87016C0.0200888 6.50135 0.978888 4.23721 2.66609 2.57437C4.3533 0.911538 6.63115 -0.0142192 9.00001 0.000165153C11.3689 -0.0142192 13.6467 0.911538 15.3339 2.57437C17.0211 4.23721 17.9799 6.50135 18 8.87016C18.0031 10.0551 17.7648 11.2282 17.2998 12.318C16.8347 13.4078 16.1526 14.3915 15.295 15.2092L9.70001 20.7122C9.51308 20.8954 9.26176 20.998 9.00001 20.998C8.73825 20.998 8.48694 20.8954 8.30001 20.7122ZM2.00001 8.87016C1.99931 9.78611 2.18454 10.6927 2.54448 11.5349C2.90441 12.3772 3.43157 13.1376 4.09401 13.7702L9.00001 18.6002L13.9 13.7792C14.565 13.1464 15.0942 12.3848 15.4552 11.5408C15.8162 10.6968 16.0016 9.78813 16 8.87016C15.9805 7.03162 15.2326 5.27586 13.9203 3.98798C12.6081 2.7001 10.8386 1.98523 9.00001 2.00017C7.16142 1.98523 5.39195 2.7001 4.0797 3.98798C2.76745 5.27586 2.01954 7.03162 2.00001 8.87016ZM5.00001 9.00016C5.00001 8.20904 5.2346 7.43568 5.67413 6.77788C6.11365 6.12009 6.73837 5.6074 7.46927 5.30465C8.20018 5.0019 9.00445 4.92268 9.78037 5.07702C10.5563 5.23136 11.269 5.61233 11.8284 6.17174C12.3878 6.73115 12.7688 7.44388 12.9231 8.2198C13.0775 8.99573 12.9983 9.79999 12.6955 10.5309C12.3928 11.2618 11.8801 11.8865 11.2223 12.326C10.5645 12.7656 9.79113 13.0002 9.00001 13.0002C7.93914 13.0002 6.92173 12.5787 6.17158 11.8286C5.42143 11.0784 5.00001 10.061 5.00001 9.00016ZM7.00001 9.00016C7.00001 9.39573 7.11731 9.78241 7.33707 10.1113C7.55683 10.4402 7.86919 10.6965 8.23464 10.8479C8.60009 10.9993 9.00223 11.0389 9.39019 10.9617C9.77815 10.8846 10.1345 10.6941 10.4142 10.4144C10.6939 10.1347 10.8844 9.77831 10.9616 9.39035C11.0387 9.00238 10.9991 8.60025 10.8478 8.2348C10.6964 7.86935 10.44 7.55699 10.1111 7.33723C9.78225 7.11746 9.39557 7.00016 9.00001 7.00016C8.46957 7.00016 7.96087 7.21088 7.58579 7.58595C7.21072 7.96102 7.00001 8.46973 7.00001 9.00016Z" fill="#9D9DAF"/>
</g>
</g>
</g>
</g>
<defs>
<clipPath id="clip0_20_994">
<rect width="18" height="21" fill="white"/>
</clipPath>
</defs>
</svg>
