<svg width="22" height="22" viewBox="0 0 22 22" fill="none" xmlns="http://www.w3.org/2000/svg">
<g id="Peronsal Profile - About - Web Link  Icon" clip-path="url(#clip0_20_1010)">
<path id="Shape" d="M11 22C8.82448 21.9999 6.69781 21.3548 4.88893 20.1461C3.08006 18.9374 1.67021 17.2194 0.837677 15.2095C0.00514156 13.1995 -0.212695 10.9878 0.211714 8.8541C0.636122 6.72036 1.68371 4.76038 3.22202 3.222C4.24096 2.18932 5.4541 1.36839 6.7916 0.806491C8.12911 0.244587 9.56455 -0.0471945 11.0153 -0.0520547C12.466 -0.0569148 13.9034 0.225243 15.2446 0.778172C16.5859 1.3311 17.8045 2.14388 18.8303 3.16971C19.8561 4.19554 20.6689 5.41416 21.2218 6.75539C21.7748 8.09663 22.0569 9.534 22.0521 10.9847C22.0472 12.4355 21.7554 13.8709 21.1935 15.2084C20.6316 16.5459 19.8107 17.7591 18.778 18.778C17.759 19.8027 16.5468 20.615 15.2118 21.1681C13.8767 21.7211 12.4451 22.0039 11 22ZM10.038 16.418C9.33413 16.453 8.63291 16.5295 7.93802 16.647C8.29805 17.8625 9.03305 18.9332 10.038 19.706V16.418ZM12.038 16.418V19.654C13 18.8756 13.7068 17.8269 14.067 16.643C13.3954 16.5308 12.718 16.457 12.038 16.422V16.418ZM16.027 17.111C15.804 17.7499 15.5266 18.3685 15.198 18.96C15.9199 18.579 16.5867 18.1016 17.18 17.541C16.8035 17.3786 16.4186 17.2364 16.027 17.115V17.111ZM5.97402 17.111C5.58271 17.2335 5.19817 17.3767 4.82202 17.54C5.41386 18.1017 6.07928 18.5804 6.80002 18.963C6.47254 18.3715 6.19588 17.7533 5.97302 17.115L5.97402 17.111ZM16.974 11.996C16.9262 13.0684 16.7898 14.1351 16.566 15.185C17.2329 15.3897 17.8823 15.6475 18.508 15.956C19.293 14.7694 19.7854 13.4137 19.945 12L16.974 11.996ZM2.05502 12C2.21373 13.4147 2.70513 14.7717 3.48902 15.96C4.11507 15.6515 4.76481 15.3937 5.43202 15.189C5.20794 14.1391 5.07114 13.0725 5.02302 12H2.05502ZM12.038 12V14.419C12.905 14.4617 13.7683 14.5619 14.622 14.719C14.81 13.8232 14.9277 12.9141 14.974 12H12.038ZM7.02602 12C7.07213 12.9125 7.18983 13.8199 7.37802 14.714C8.2569 14.5541 9.1456 14.4538 10.038 14.414V12H7.02602ZM18.191 5.587C17.622 5.84677 17.0356 6.06664 16.436 6.245C16.7413 7.47546 16.9225 8.73341 16.977 10H19.945C19.7674 8.39814 19.1615 6.87371 18.191 5.587ZM14.486 6.7C13.6764 6.84079 12.8588 6.9313 12.038 6.971V10H14.975C14.9204 8.88665 14.7566 7.78135 14.486 6.7ZM7.51402 6.7C7.24331 7.78129 7.07986 8.88664 7.02602 10H10.037V6.979C9.19094 6.93979 8.34823 6.8466 7.51402 6.7ZM3.80902 5.587C2.83852 6.87371 2.23262 8.39814 2.05502 10H5.02302C5.07798 8.73345 5.25921 7.47555 5.56402 6.245C4.96457 6.06632 4.37818 5.84647 3.80902 5.587ZM10.038 2.294C9.18189 2.92145 8.52999 3.78764 8.16402 4.784C8.78491 4.88065 9.41043 4.94474 10.038 4.976V2.294ZM12.038 2.343V4.972C12.6408 4.94009 13.2416 4.87767 13.838 4.785C13.4761 3.81983 12.8529 2.97433 12.038 2.343ZM15.198 3.037C15.4332 3.45846 15.6416 3.89432 15.822 4.342C16.129 4.251 16.428 4.15 16.709 4.042C16.2411 3.65715 15.7355 3.32045 15.2 3.037H15.198ZM6.79802 3.037C6.26337 3.3208 5.75851 3.65748 5.29102 4.042C5.56402 4.142 5.86302 4.248 6.17902 4.342C6.35846 3.89441 6.56587 3.45855 6.80002 3.037H6.79802Z" fill="#9D9DAF"/>
</g>
<defs>
<clipPath id="clip0_20_1010">
<rect width="22" height="22" fill="white"/>
</clipPath>
</defs>
</svg>
