<svg width="22" height="22" viewBox="0 0 22 22" fill="none" xmlns="http://www.w3.org/2000/svg">
<g id="Group 24 Copy" clip-path="url(#clip0_20_1080)">
<path id="Combined Shape" d="M22 18C21.9992 17.1461 21.7252 16.3149 21.2181 15.6279C20.711 14.9409 19.9973 14.4343 19.1815 14.182C18.3657 13.9298 17.4906 13.9453 16.6843 14.2261C15.8779 14.507 15.1825 15.0386 14.7 15.743L7.79999 12.257C8.07935 11.4111 8.0688 10.4962 7.76999 9.65702L14.712 6.27302C15.2567 7.05925 16.0651 7.62427 16.9906 7.86562C17.9162 8.10698 18.8975 8.0087 19.7568 7.5886C20.6161 7.1685 21.2964 6.45439 21.6744 5.57576C22.0524 4.69712 22.103 3.71214 21.8171 2.79938C21.5312 1.88663 20.9277 1.10655 20.116 0.60057C19.3043 0.0945926 18.3381 -0.103777 17.3927 0.041427C16.4473 0.186631 15.5853 0.665797 14.9628 1.39204C14.3404 2.11829 13.9988 3.04354 14 4.00002C14 4.12935 14.006 4.25702 14.018 4.38302L6.62699 7.98302C6.0452 7.47526 5.32889 7.14676 4.56451 7.03716C3.80013 6.92757 3.02037 7.04156 2.31936 7.36539C1.61834 7.68922 1.02604 8.20903 0.613965 8.86209C0.201885 9.51514 -0.0123586 10.2735 -0.00290443 11.0456C0.00654979 11.8178 0.239298 12.5707 0.667243 13.2134C1.09519 13.8562 1.70004 14.3614 2.40877 14.6679C3.1175 14.9745 3.89982 15.0694 4.66129 14.9411C5.42275 14.8128 6.13081 14.4669 6.69999 13.945L14.012 17.638C14.004 17.7574 14 17.878 14 18C14 19.0609 14.4214 20.0783 15.1716 20.8284C15.9217 21.5786 16.9391 22 18 22C19.0609 22 20.0783 21.5786 20.8284 20.8284C21.5786 20.0783 22 19.0609 22 18ZM20 18C20 18.3956 19.8827 18.7823 19.6629 19.1112C19.4432 19.4401 19.1308 19.6964 18.7654 19.8478C18.3999 19.9992 17.9978 20.0388 17.6098 19.9616C17.2218 19.8844 16.8655 19.6939 16.5858 19.4142C16.3061 19.1345 16.1156 18.7782 16.0384 18.3902C15.9612 18.0022 16.0009 17.6001 16.1522 17.2347C16.3036 16.8692 16.5599 16.5568 16.8888 16.3371C17.2177 16.1173 17.6044 16 18 16C18.5304 16 19.0391 16.2107 19.4142 16.5858C19.7893 16.9609 20 17.4696 20 18ZM5.99999 11C5.99999 11.3956 5.88269 11.7823 5.66293 12.1112C5.44316 12.4401 5.13081 12.6964 4.76535 12.8478C4.3999 12.9992 3.99777 13.0388 3.60981 12.9616C3.22184 12.8844 2.86548 12.6939 2.58577 12.4142C2.30607 12.1345 2.11559 11.7782 2.03842 11.3902C1.96125 11.0022 2.00085 10.6001 2.15223 10.2347C2.3036 9.8692 2.55995 9.55684 2.88885 9.33708C3.21774 9.11732 3.60442 9.00002 3.99999 9.00002C4.53042 9.00002 5.03913 9.21073 5.4142 9.58581C5.78927 9.96088 5.99999 10.4696 5.99999 11ZM20 4.00002C20 4.39558 19.8827 4.78226 19.6629 5.11116C19.4432 5.44006 19.1308 5.6964 18.7654 5.84778C18.3999 5.99915 17.9978 6.03876 17.6098 5.96159C17.2218 5.88442 16.8655 5.69394 16.5858 5.41423C16.3061 5.13453 16.1156 4.77816 16.0384 4.3902C15.9612 4.00224 16.0009 3.60011 16.1522 3.23465C16.3036 2.8692 16.5599 2.55684 16.8888 2.33708C17.2177 2.11732 17.6044 2.00002 18 2.00002C18.5304 2.00002 19.0391 2.21073 19.4142 2.58581C19.7893 2.96088 20 3.46959 20 4.00002Z" fill="#9D9DAF"/>
</g>
<defs>
<clipPath id="clip0_20_1080">
<rect width="22" height="22" fill="white"/>
</clipPath>
</defs>
</svg>
