<svg width="21" height="21" viewBox="0 0 21 21" fill="none" xmlns="http://www.w3.org/2000/svg">
<g id="ic_Emoticon" clip-path="url(#clip0_20_1096)">
<path id="Shape" d="M3.07501 17.924C1.12447 15.951 0.0340478 13.2863 0.0419741 10.5119C0.0499003 7.73757 1.15553 5.07909 3.11731 3.11731C5.07909 1.15553 7.73757 0.0499003 10.5119 0.0419741C13.2863 0.0340478 15.951 1.12447 17.924 3.07501C19.8745 5.04797 20.965 7.71271 20.957 10.4871C20.9491 13.2615 19.8435 15.9199 17.8817 17.8817C15.9199 19.8435 13.2615 20.9491 10.4871 20.957C7.71271 20.965 5.04797 19.8745 3.07501 17.924ZM1.00001 10.5C1.00001 12.3789 1.55717 14.2157 2.60105 15.7779C3.64492 17.3402 5.12862 18.5578 6.86451 19.2769C8.60041 19.9959 10.5105 20.184 12.3534 19.8175C14.1962 19.4509 15.8889 18.5461 17.2175 17.2175C18.5461 15.8889 19.4509 14.1962 19.8175 12.3534C20.184 10.5105 19.9959 8.60041 19.2769 6.86451C18.5578 5.12862 17.3402 3.64492 15.7779 2.60105C14.2157 1.55717 12.3789 1.00001 10.5 1.00001C7.98134 1.00292 5.56667 2.00474 3.78571 3.78571C2.00474 5.56667 1.00292 7.98134 1.00001 10.5ZM6.20701 14.919C6.15448 14.8796 6.11022 14.8303 6.07677 14.7738C6.04332 14.7173 6.02132 14.6547 6.01203 14.5897C5.99328 14.4584 6.02744 14.3251 6.10701 14.219C6.18657 14.1129 6.30502 14.0428 6.4363 14.024C6.56757 14.0053 6.70092 14.0394 6.80701 14.119C7.89999 14.8771 9.20409 15.2715 10.534 15.246C11.845 15.2769 13.1309 14.8833 14.2 14.124C14.3049 14.0434 14.4374 14.0076 14.5686 14.0244C14.6998 14.0413 14.819 14.1095 14.9 14.214C14.9807 14.3189 15.0165 14.4514 14.9996 14.5826C14.9827 14.7138 14.9146 14.833 14.81 14.914C13.5686 15.8142 12.066 16.2818 10.533 16.245C8.98634 16.2768 7.47019 15.8121 6.20701 14.919ZM12.5 8.50001C12.5 8.30223 12.5587 8.10889 12.6685 7.94444C12.7784 7.77999 12.9346 7.65182 13.1173 7.57613C13.3 7.50044 13.5011 7.48064 13.6951 7.51922C13.8891 7.55781 14.0673 7.65305 14.2071 7.7929C14.347 7.93275 14.4422 8.11094 14.4808 8.30492C14.5194 8.4989 14.4996 8.69997 14.4239 8.88269C14.3482 9.06542 14.22 9.2216 14.0556 9.33148C13.8911 9.44136 13.6978 9.50001 13.5 9.50001C13.2348 9.50001 12.9804 9.39465 12.7929 9.20711C12.6054 9.01958 12.5 8.76522 12.5 8.50001ZM6.50001 8.50001C6.50001 8.30223 6.55866 8.10889 6.66854 7.94444C6.77842 7.77999 6.9346 7.65182 7.11732 7.57613C7.30005 7.50044 7.50112 7.48064 7.6951 7.51922C7.88908 7.55781 8.06726 7.65305 8.20711 7.7929C8.34697 7.93275 8.44221 8.11094 8.48079 8.30492C8.51938 8.4989 8.49957 8.69997 8.42389 8.88269C8.3482 9.06542 8.22003 9.2216 8.05558 9.33148C7.89113 9.44136 7.69779 9.50001 7.50001 9.50001C7.23479 9.50001 6.98044 9.39465 6.7929 9.20711C6.60536 9.01958 6.50001 8.76522 6.50001 8.50001Z" fill="#D5D5DC"/>
</g>
<defs>
<clipPath id="clip0_20_1096">
<rect width="21" height="21" fill="white"/>
</clipPath>
</defs>
</svg>
